<svg id="Layer_1" height="512" viewBox="0 0 128 128" width="512" xmlns="http://www.w3.org/2000/svg" data-name="Layer 1"><g fill="#5be167"><path d="m41.231 88.437c0 2.951-5.344 12.093-5.344 12.093s-5.344-9.142-5.344-12.093a5.344 5.344 0 0 1 10.688 0z"/><path d="m97.457 88.437c0 2.951-5.344 12.093-5.344 12.093s-5.344-9.142-5.344-12.093a5.344 5.344 0 0 1 10.688 0z"/><path d="m70.54 97.2c0 3.613-6.54 14.8-6.54 14.8s-6.54-11.187-6.54-14.8a6.54 6.54 0 0 1 13.08 0z"/><path d="m77.196 31.722h3.505v3.505h-3.505z" transform="matrix(-.707 .707 -.707 -.707 158.443 1.319)"/><path d="m77.66 62.083h3.505v3.505h-3.505z" transform="matrix(-.707 -.707 .707 -.707 90.425 165.127)"/><path d="m47.299 62.547h3.505v3.505h-3.505z" transform="matrix(.707 -.707 .707 .707 -31.1 53.518)"/><path d="m46.835 32.186h3.505v3.505h-3.505z" transform="matrix(.707 .707 -.707 .707 38.229 -24.416)"/></g><path d="m57.413 42.3h13.175v13.175h-13.175z" fill="#fd657d" transform="matrix(.707 -.707 .707 .707 -15.823 59.574)"/><path d="m76.408 73.237c-7.2 0-16.385-4.43-24.357-12.4-11.841-11.837-15.867-26.366-9.167-33.066 3.337-3.338 8.713-4.117 15.136-2.191 6.05 1.813 12.418 5.847 17.929 11.358 11.84 11.841 15.867 26.362 9.167 33.062a11.929 11.929 0 0 1 -8.708 3.237zm-24.86-45.195a8.47 8.47 0 0 0 -6.19 2.2c-2.384 2.384-2.85 6.524-1.312 11.656 1.65 5.5 5.371 11.35 10.48 16.459 10.1 10.1 22.98 14.3 28.116 9.168s.936-18.011-9.168-28.116c-5.109-5.108-10.954-8.83-16.459-10.48a19.245 19.245 0 0 0 -5.467-.887z" fill="#fed943"/><path d="m51.592 73.237a11.929 11.929 0 0 1 -8.708-3.237c-6.7-6.7-2.673-21.224 9.167-33.065 5.512-5.508 11.879-9.542 17.929-11.355 6.423-1.925 11.8-1.147 15.136 2.191 6.7 6.7 2.674 21.224-9.167 33.064-7.971 7.972-17.159 12.402-24.357 12.402zm2.934-33.824c-10.1 10.105-14.3 22.98-9.168 28.116s18.011.936 28.116-9.168c5.109-5.109 8.83-10.954 10.48-16.459 1.538-5.132 1.072-9.272-1.312-11.656s-6.523-2.85-11.657-1.313c-5.5 1.65-11.35 5.372-16.459 10.48z" fill="#fed943"/><path d="m64 22.524a1.751 1.751 0 0 1 -1.75-1.75v-4.774a1.75 1.75 0 0 1 3.5 0v4.774a1.751 1.751 0 0 1 -1.75 1.75z" fill="#b95d4f"/><path d="m35.887 87.78a1.751 1.751 0 0 1 -1.75-1.75v-37.143a1.75 1.75 0 0 1 3.5 0v37.143a1.75 1.75 0 0 1 -1.75 1.75z" fill="#715d57"/><path d="m92.113 87.78a1.75 1.75 0 0 1 -1.75-1.75v-37.143a1.75 1.75 0 0 1 3.5 0v37.143a1.751 1.751 0 0 1 -1.75 1.75z" fill="#715d57"/><path d="m64 96.005a1.751 1.751 0 0 1 -1.75-1.75v-17.255a1.75 1.75 0 0 1 3.5 0v17.255a1.751 1.751 0 0 1 -1.75 1.75z" fill="#715d57"/><path d="m64 78.75a29.863 29.863 0 1 1 29.863-29.863 29.9 29.9 0 0 1 -29.863 29.863zm0-56.226a26.363 26.363 0 1 0 26.363 26.363 26.393 26.393 0 0 0 -26.363-26.363z" fill="#b95d4f"/></svg>