<?xml version="1.0"?>
<svg xmlns="http://www.w3.org/2000/svg" id="Layer_1" data-name="Layer 1" viewBox="0 0 128 128" width="512" height="512"><path d="M53.447,65.237l9.316,9.316a1.748,1.748,0,0,0,2.474,0l9.316-9.316a1.748,1.748,0,0,0,0-2.474l-9.316-9.316a1.748,1.748,0,0,0-2.474,0l-9.316,9.316A1.748,1.748,0,0,0,53.447,65.237ZM64,57.159,70.841,64,64,70.841,57.159,64Z"/><rect x="77.196" y="46.835" width="3.505" height="3.505" transform="translate(-11.233 70.056) rotate(-45)"/><rect x="77.66" y="77.196" width="3.505" height="3.505" transform="translate(-32.566 79.277) rotate(-45)"/><rect x="47.299" y="77.66" width="3.505" height="3.505" transform="translate(-41.786 57.944) rotate(-45)"/><rect x="46.835" y="47.299" width="3.505" height="3.505" transform="translate(-20.454 48.723) rotate(-45)"/><path d="M100.987,85.383C89.014,94.659,76.57,99.363,64,99.363s-25.011-4.7-36.983-13.977a1.75,1.75,0,0,0-2.144,2.767c12.6,9.761,25.765,14.71,39.127,14.71s26.529-4.95,39.131-14.714a1.75,1.75,0,0,0-2.144-2.766Z"/><path d="M27.013,42.617C38.986,33.341,51.43,28.637,64,28.637s25.015,4.7,36.99,13.982a1.75,1.75,0,0,0,2.144-2.767C90.531,30.088,77.364,25.137,64,25.137s-26.529,4.95-39.131,14.714a1.75,1.75,0,0,0,2.144,2.766Z"/><path d="M113.429,62.989A83.2,83.2,0,0,0,99.659,48.6c-10.924-9.048-22.679-14-34.1-14.418q-.774-.04-1.558-.041t-1.558.041c-11.422.415-23.177,5.37-34.1,14.418a83.2,83.2,0,0,0-13.77,14.393,1.753,1.753,0,0,0,0,2.022A83.2,83.2,0,0,0,28.341,79.4c10.924,9.048,22.679,14,34.1,14.418q.774.041,1.558.041t1.558-.041c11.422-.415,23.177-5.37,34.1-14.418a83.2,83.2,0,0,0,13.77-14.393A1.753,1.753,0,0,0,113.429,62.989ZM90.363,64a26.227,26.227,0,0,1-2.131,10.376A29.756,29.756,0,0,0,84.867,64a29.756,29.756,0,0,0,3.365-10.376A26.227,26.227,0,0,1,90.363,64ZM64,90.363c-.531,0-1.053-.031-1.578-.052a26.144,26.144,0,0,1-8.807-2.084A29.725,29.725,0,0,0,64,84.863a29.718,29.718,0,0,0,10.385,3.364,26.144,26.144,0,0,1-8.807,2.084C65.053,90.332,64.531,90.363,64,90.363ZM37.637,64a26.227,26.227,0,0,1,2.131-10.376A29.774,29.774,0,0,0,43.132,64a29.774,29.774,0,0,0-3.364,10.376A26.227,26.227,0,0,1,37.637,64ZM64,37.637c.531,0,1.053.031,1.578.052a26.16,26.16,0,0,1,8.8,2.079A29.748,29.748,0,0,0,64,43.132a29.774,29.774,0,0,0-10.376-3.364,26.171,26.171,0,0,1,8.8-2.079C62.947,37.668,63.469,37.637,64,37.637Zm-18.381,7.49a8.631,8.631,0,0,1,5.92-1.965,22.477,22.477,0,0,1,8.774,2.132A53.5,53.5,0,0,0,45.3,60.3c-2.7-6.153-2.944-11.775-.044-14.821C45.376,45.363,45.5,45.245,45.619,45.127ZM64.005,47.18A47.756,47.756,0,0,1,80.817,64,47.675,47.675,0,0,1,64,80.817,47.675,47.675,0,0,1,47.183,64,47.675,47.675,0,0,1,64.005,47.18ZM45.3,67.7a53.369,53.369,0,0,0,15.008,15c-6.155,2.7-11.779,2.946-14.826.046-.076-.075-.151-.15-.226-.226C42.357,79.471,42.6,73.849,45.3,67.7ZM82.517,82.743c-3.047,2.9-8.671,2.655-14.826-.046A53.369,53.369,0,0,0,82.7,67.7c2.7,6.153,2.944,11.775.044,14.821C82.668,82.593,82.593,82.668,82.517,82.743ZM82.7,60.3a53.48,53.48,0,0,0-15-15c6.153-2.7,11.775-2.944,14.821-.044.076.075.151.15.226.226C85.643,48.529,85.4,54.151,82.7,60.3ZM18.189,64A84.264,84.264,0,0,1,30.645,51.233a68.694,68.694,0,0,1,11.863-7.939c-.038.042-.078.082-.115.125a29.781,29.781,0,0,0,0,41.162c.037.043.077.083.115.125a68.694,68.694,0,0,1-11.863-7.939A84.264,84.264,0,0,1,18.189,64ZM97.355,76.767a68.694,68.694,0,0,1-11.863,7.939c.038-.042.078-.082.115-.125a29.781,29.781,0,0,0,0-41.162c-.037-.043-.077-.083-.115-.125a68.694,68.694,0,0,1,11.863,7.939A84.242,84.242,0,0,1,109.81,64,84.242,84.242,0,0,1,97.355,76.767Z"/></svg>
