<svg id="Layer_1" height="512" viewBox="0 0 128 128" width="512" xmlns="http://www.w3.org/2000/svg" data-name="Layer 1"><path d="m86.712 84.238-56.531-56.532a1.75 1.75 0 0 0 -2.475 2.475l56.532 56.531a1.749 1.749 0 0 0 2.474-2.474z" fill="#b95d4f"/><path d="m42.525 87.225a1.75 1.75 0 0 1 -1.237-2.987l56.531-56.532a1.75 1.75 0 0 1 2.475 2.475l-56.532 56.531a1.743 1.743 0 0 1 -1.237.513z" fill="#b95d4f"/><path d="m85.568 23.696 14.287 4.449 4.449 14.287 7.696-26.432z" fill="#5be167"/><path d="m28.308 84.692-12.308 12.308 14.217.783.783 14.217 12.308-12.308.711-15.711z" fill="#b95d4f"/><path d="m21.655 91.345-5.655 5.655 14.217.783.783 14.217 5.655-5.655.711-15.711z" fill="#5be167"/><path d="m42.432 23.696-14.287 4.449-4.449 14.287-7.696-26.432z" fill="#fed943"/><path d="m99.692 84.692 12.308 12.308-14.217.783-.783 14.217-12.308-12.308-.711-15.711z" fill="#b95d4f"/><path d="m106.345 91.345 5.655 5.655-14.217.783-.783 14.217-5.655-5.655-.711-15.711z" fill="#fed943"/></svg>