<svg id="Line" height="512" viewBox="0 0 64 64" width="512" xmlns="http://www.w3.org/2000/svg"><path d="m60 25h-5.82l-.52 3.14a1 1 0 0 1 -1 .83h-.16a1 1 0 0 1 -.83-1.15l.48-2.82h-18.83l.43 2.82a1 1 0 0 1 -.83 1.18h-.16a1 1 0 0 1 -1-.85l-.46-3.15h-9.3a3 3 0 0 0 -3 3v32a3 3 0 0 0 3 3h15.14l-.43-2.83a1 1 0 1 1 2-.3l.46 3.13h6.65l.52-3.14a1 1 0 0 1 2 .33l-.49 2.81h12.15a3 3 0 0 0 3-3v-32a3 3 0 0 0 -3-3zm-27.13 10.25-.54-3.56a1 1 0 1 1 2-.3l.52 3.61a1 1 0 0 1 -.85 1.09h-.15a1 1 0 0 1 -.98-.84zm1.13 7.12-.55-3.56a1 1 0 0 1 2-.3l.55 3.56a1 1 0 0 1 -.84 1.14h-.16a1 1 0 0 1 -1-.84zm1.09 7.12-.54-3.56a1 1 0 1 1 2-.3l.45 3.56a1 1 0 0 1 -.83 1.14h-.16a1 1 0 0 1 -.95-.84zm2.24 8h-.15a1 1 0 0 1 -1-.85l-.55-3.56a1 1 0 0 1 .84-1.14 1 1 0 0 1 1.14.84l.55 3.56a1 1 0 0 1 -.86 1.11zm11.61-.82a1 1 0 0 1 -1 .83h-.16a1 1 0 0 1 -.82-1.15l.59-3.56a1 1 0 1 1 2 .33zm1.19-7.12a1 1 0 0 1 -1 .83h-.13a1 1 0 0 1 -.83-1.15l.6-3.56a1 1 0 1 1 2 .32zm1.18-7.13a1 1 0 0 1 -1 .84h-.17a1 1 0 0 1 -.82-1.16l.59-3.56a1 1 0 0 1 2 .33zm1.19-7.12a1 1 0 0 1 -1 .84h-.16a1 1 0 0 1 -.82-1.15l.59-3.56a1 1 0 0 1 1.15-.82 1 1 0 0 1 .82 1.15z" fill="#c4a2fc"/><path d="m45.26 16a5.71 5.71 0 0 0 -2.85.76l-15.31 8.74a4.25 4.25 0 0 0 -.6-.6l8.75-15.31a5.75 5.75 0 0 0 -5-8.59 11.66 11.66 0 0 0 -10.87 7.37 20.78 20.78 0 0 0 .71 17v.1l-13.6 4.93a5 5 0 0 0 -3.05 3.13l-2.39 7.15a1 1 0 0 0 1.45 1.19l17.82-10.18-10.19 17.81a1 1 0 0 0 1.19 1.5l7.17-2.39a5 5 0 0 0 3.11-3l5-13.63a20.82 20.82 0 0 0 17 .7 11.66 11.66 0 0 0 7.4-10.94 5.75 5.75 0 0 0 -5.74-5.74zm-23.26 12a2 2 0 1 1 2 2 2 2 0 0 1 -2-2zm-.76-18.89a9.66 9.66 0 0 1 9-6.11 3.75 3.75 0 0 1 3.76 3.74 3.8 3.8 0 0 1 -.49 1.86l-8.84 15.47a3.71 3.71 0 0 0 -.67-.07 4 4 0 0 0 -2.08.6v-.09a18.77 18.77 0 0 1 -.68-15.4zm-15.9 25a3 3 0 0 1 1.83-1.88l12.83-4.57v.34a4.11 4.11 0 0 0 .27 1.41l-16.49 9.42zm14.38 10.73a2.94 2.94 0 0 1 -1.87 1.82l-4.68 1.56 9.42-16.49a3.93 3.93 0 0 0 1.41.27h.41zm23.17-14.07a18.85 18.85 0 0 1 -15.4-.64l-.09-.05a3.92 3.92 0 0 0 .6-2.08 4.91 4.91 0 0 0 -.06-.67l15.47-8.84a3.74 3.74 0 0 1 5.59 3.25 9.69 9.69 0 0 1 -6.11 9.03z" fill="#151a6a"/></svg>