<svg id="Capa_1" data-name="Capa 1" xmlns="http://www.w3.org/2000/svg" viewBox="0 0 500 277.93"><defs><style>.cls-1{fill:#000;}</style></defs><title>Artboard 4</title><path class="cls-1" d="M421.07,145.9c-8.69,2.26-13.85,11.59-15.8,18.28a49.44,49.44,0,0,0-1.4,19.24c1.16,10.71,7.74,17.48,18.27,18.38,36.33,3.08,57.35-36,75-61,.36-.5.94-1,1.62-.61s.52.9.19,1.56c-13.77,26.94-37.52,62.58-58.91,74-10.12,5.38-22.62,6.62-33.2,2.22a34.87,34.87,0,0,1-12.43-8.69c-3.68-4.07-6.29-11.48-7.63-16.35-6.3,12.17-11.9,25.43-22.59,34.49-12.66,10.72-26-3.34-32.77-13.21-8.9-13-13.22-27.6-23.12-39.67a2,2,0,0,0-3.34.12c-7.28,10.14-10.9,20.46-15.76,31.87-1.87,4.38-12.42,31.25-19.34,21.45-8.15-11.55-5.83-32.87-5.83-46.5-4,3.48-5.55,5.31-12,10.23-6.72,5.15-12.27,5.83-18.71.24-3.94,10-7.06,16.88-13.3,25.53a10.42,10.42,0,0,1-10.42,4.21c-14.59-2.92-21.25-15.26-21.85-28.14-1-20.58,3.72-43.73,21.19-56.82,8.55-6.4,20.57-1.75,24.12,8.74.74,3.13-7.46,2.57-14.74,10.13-5.34,5.54-8,12.37-10.51,18.69-4.63,11.52-9.37,32.78,2.36,41.88A2.94,2.94,0,0,0,214,216c5.83-5.45,12.6-18.64,14.61-28.42,2.37-11.55-2.26-22,1.28-33.29a2.86,2.86,0,0,1,3.74-1.82c4.62,1.77,5.8,4.15,5.15,8.88-1.12,8.08-3,16.11-3.49,24.26,4,2.92,8.58,3,11.57.64,5.25-4.13,14.33-12.46,17.78-17,1-9.23,6.09-57.28,9.63-76.83,4.87-26.89,10.23-67.43,32-85.88,13.34-11.31,22.47-7.07,29.69,7,7.88,15.38-10.92,35.39-18.35,48.07C308.46,77.11,300,92.79,293.9,109.64c-6.18,17.11-9.68,35.55-14.37,53.14-4.14,15.5-8.62,32.3-5.15,48.25a1.22,1.22,0,0,0,2.21.42c9.29-13.61,15.5-29.57,26.56-41.84,8.33-9.24,18.72-9.8,26.95-.47,6.45,7.31,26,54.4,38.17,41.07a132.22,132.22,0,0,0,17.16-24,72.79,72.79,0,0,1,4.85-17.16c5-12.63,14.21-23.12,27.42-27.36a25.27,25.27,0,0,1,2.84-.7c11-2.16,17.55,4.89,14.19,15.62-4.56,14.56-14.59,21.63-25.77,31a1.27,1.27,0,0,1-1.72-.08l0,0a1.18,1.18,0,0,1-.07-1.71C427.22,170.72,436,142,421.07,145.9Z"/><path class="cls-1" d="M5.14,131.34c.2,3.74-3.06,4.77-3.33,3.5C-6.62,94.92,38,51.64,70.54,37.64c11.67-5,21.92-6.83,33.9-7.13,5.23-.13,18.5,1.67,24.83,4.83,11,5.51,21.93,17.72,23.38,32.53,2.74,28-14,42.61-17.6,47.59A42.93,42.93,0,0,1,168.83,121c11.45,7.07,17.64,16.48,19,29.67,2.73,26.7-17.68,50.59-35.14,68.34a361.3,361.3,0,0,1-69.8,55c-2.56,1.52-4.82,2.05-2.21-.82,0,0,.75-1.68-1-1-6.77,2.75-13.47,5.83-21,5.68a.49.49,0,0,1-.12-1c1.9-.49,3.87-.86,5.66-1.49a22.93,22.93,0,0,0,5.94-3c1.4-1,1-2.56-.17-2.33-8.31,1.56-17,3.58-26.28,3.92a7.38,7.38,0,0,1-5.22-1.9l0,0c-3.55,0-7,.07-10.36,0C24.32,272,22.67,271,21,269.27c-5.53-5.51-.42-23.91,5.9-36.31,5.38-10.56,16.87-26.4,39.08-44.07.49-8.16,1.14-68.76,1.42-91.31.24-19.85-5.16-30.3-.08-32.93,4.61-2.38,13.31,3.62,18.18,10.13,7.92,10.58,3.92,43.8,3.92,43.8s-3.28,25.63-7.54,59.73c20.22-13.28,34.92-20.1,53.73-25.26a.72.72,0,0,1,.44,1.37c-21.91,8.07-36.66,18.14-55.4,33.11-2,12.66-3.78,23.39-5.92,36.7-.53,3.28.77,3.46,1.78,2.93,6.21-3.3,9.94-8.19,14.2-12.42a1,1,0,0,1,1.56,1.06c-4.35,9.75-21.75,27.53-25.25,12.93-2.52-10.52-2-19.6-2-29.56-14.29,11.68-25.88,23-34.8,39.38-5.36,11.6-14.24,33,8.21,28.29,16.8-3.53,29.83-10.82,43-20.25,13.73-9.83,27.35-20,39.59-31.66,21.2-20.22,42.86-44.78,44.74-75.41.87-14.22-8.77-22.6-22.9-20-10.08,1.85-19.51,7.53-28.5,12.34a3.53,3.53,0,0,1-2.71.25l-9-2.79a2.27,2.27,0,0,1-1.13-3.54C116.6,106,130.58,88.32,132.27,62c1-15.62-9.11-25.61-24.78-25.26-18.31.41-35.16,4.75-50.33,14.91C48.23,57.6,37.34,67.34,27.9,78,17,90.26,13.57,97.39,10,106.24,5.41,117.66,4.76,124.16,5.14,131.34Z"/><path class="cls-1" d="M432.58,127.34c-7.34,5.36-15.93,3.82-20.63-3.3A2.36,2.36,0,0,1,414,120.4c16,.71,23.05-10.79,30-22.6a1,1,0,0,1,1.75.64C444,109.18,442.63,120,432.58,127.34Z"/></svg>